PathFileType	4	(X/Y/Z)	C:/Users/beibeiliu/ov580/test_trc/User2\sequence.31_training_dense_left.trc
DataRate	CameraRate	NumFrames	NumMarkers	Units	OrigDataRate	OrigDataStartFrame	OrigNumFrames
120	120	8	19	mm	120	219	349
Frame#	Time	ThumbCMC			ThumbMCP			ThumbIP			ThumbTip			IndexMCP			IndexPIP			IndexTip			MiddleMCP			MiddlePIP			MiddleTip			RingMCP			RingPIP			RingTip			PinkyMCP			PinkyPIP			PinkyTip			BackHand1			BackHand2			BackHand3	
		X0	Y0	Z0	X1	Y1	Z1	X2	Y2	Z2	X3	Y3	Z3	X4	Y4	Z4	X5	Y5	Z5	X6	Y6	Z6	X7	Y7	Z7	X8	Y8	Z8	X9	Y9	Z9	X10	Y10	Z10	X11	Y11	Z11	X12	Y12	Z12	X13	Y13	Z13	X14	Y14	Z14	X15	Y15	Z15	X16	Y16	Z16	X17	Y17	Z17	X18	Y18	Z18	
218	1.81667	-161.204	74.0339	103.839	-141.907	91.7034	80.0358	-133.481	113.901	53.9837	-140.164	123.42	26.6966	-197.751	138.172	73.5033	-185.427	155.216	49.3109	-156.103	142.673	31.6877	-217.336	133.239	52.254	-197.573	144.807	26.1312	-163.84	119.372	22.9894	-219.817	114.182	35.6941	-195.334	124.105	14.4484	-171.476	101.113	22.7371	-224.78	89.6345	29.1938	-202.529	109.371	9.37117	-173.101	93.7635	13.0657	-225.445	67.253	77.1639	-224.325	38.5597	92.0396	-207.777	69.2789	108.986	
219	1.825	-159.158	72.3167	106.202	-138.272	92.8424	83.4331	-131.394	119.043	56.7362	-138.3	126.111	32.9272	-193.328	141.894	84.3026	-181.758	160.788	59.0224	-152.294	145.595	38.6124	-213.23	137.438	64.5506	-196.885	152.46	35.5924	-165.465	126.492	27.8755	-217.279	125.371	42.0524	-196.136	132.716	24.5732	-169.661	104.974	29.5187	-221.812	101.404	37.7031	-203.774	115.223	13.8805	-176.222	99.7347	20.2517	-223.914	72.4287	80.5952	-223.235	43.7692	97.6336	-204.785	73.4354	111.262	
220	1.83333	-155.178	72.0159	109.303	-135.883	93.544	85.7297	-125.387	117.842	61.3986	-139.378	130.092	36.2509	-189.278	144.454	90.7949	-174.348	164.841	67.0496	-151.767	153.1	46.4292	-209.272	142.006	76.0043	-192.373	161.123	47.2009	-162.274	133.513	36.1658	-216.375	131.698	49.5066	-195.954	136.444	28.3563	-171.227	110.948	33.9116	-224.156	110.583	38.9133	-201.74	121.847	20.0216	-175.03	100.928	28.3374	-224.795	76.9781	82.8643	-219.839	48.8086	99.0551	-200.472	76.2073	116.565	
221	1.84167	-151.87	72.0107	110.842	-132.988	95.8951	85.9568	-125.369	121.564	61.2331	-138.024	134.587	37.8893	-187.118	145.138	96.0651	-174.344	167.009	74.7887	-150.951	154.068	50.2785	-208.241	146.735	83.5542	-193.464	164.483	52.4612	-163.718	137.506	39.4933	-213.31	135.26	58.4144	-193.421	141.083	34.5163	-170.866	110.945	37.6679	-220.849	116.156	46.6674	-199.736	125.473	24.3693	-176.297	100.887	29.1114	-221.444	81.3349	88.4137	-222.364	44.8971	101.276	-197.206	77.8377	120.273	
222	1.85	-151.966	71.6277	109.929	-132.303	96.3034	86.0593	-124.13	122.953	63.2573	-139.637	136.692	39.5344	-184.162	145.033	102.388	-171.669	168.533	81.4714	-150.158	158.351	55.7538	-207.497	144.997	88.4734	-191.67	167.986	59.285	-164.379	142.032	42.4331	-212.333	138.627	62.4719	-193.896	145.202	38.5426	-171.72	115.595	38.2186	-220.587	113.595	50.506	-197.13	127.144	26.5876	-175.996	101.531	31.8655	-222.37	81.4127	89.4883	-218.577	48.1926	101.78	-197.429	72.6136	118.961	
223	1.85833	-150.5	71.1855	111.145	-131.685	90.22	87.5608	-126.239	117.245	65.2449	-134.487	136.238	42.3293	-183.185	146.018	104.12	-173.038	168.396	82.3847	-151.243	158.059	55.1337	-209.141	146.307	87.8812	-193.409	170.112	64.8835	-162.611	147.191	45.2553	-212.261	137.954	66.6789	-191.969	146.142	41.654	-170.867	120.469	41.4833	-219.884	120.362	52.7279	-196.809	130.579	32.9553	-176.306	104.045	33.8441	-220.673	82.0971	94.6517	-223.321	49.7314	100.84	-196.709	73.0749	118.723	
224	1.86667	-152.017	70.1709	109.582	-135.647	93.1506	86.1436	-120.745	117.318	65.0124	-132.749	135.504	42.5878	-181.8	146.628	105.483	-170.054	168.72	82.2035	-147.916	157.328	57.5685	-207.923	148.548	89.9305	-192.524	169.92	62.9809	-161.888	149.542	46.8719	-212.904	135.068	67.8846	-192.866	147.241	41.6209	-170.089	120.652	42.4627	-222.517	119.775	52.9051	-199.172	131.162	31.3394	-175.816	104.466	35.4516	-222.485	79.5966	93.0088	-222.301	47.6059	103.614	-195.15	75	122.464	
225	1.875	-149.908	68.9283	110.511	-129.827	90.8236	88.199	-124.709	112.621	65.8108	-135.261	135.565	42.0505	-182.307	147.808	103.253	-166.674	168.097	82.6901	-152.732	156.951	56.0383	-204.91	144.582	93.5438	-193.814	169.214	64.9877	-164.597	150.753	45.9808	-213.337	139.119	65.7967	-190.504	148.584	46.3497	-171.531	119.827	41.7321	-219.196	120.071	55.271	-198.376	130.397	33.7805	-176.806	103.361	34.1653	-222.105	79.1512	94.4228	-219.477	45.3058	102.187	-194.359	72.8486	121.225	
